<svg xmlns="http://www.w3.org/2000/svg" width="350" height="242" viewBox="0 0 350 242" version="1.1">
	<path d="M 5.025 5.049 C 6.161 7.276, 7.760 9.354, 8.578 9.668 C 9.399 9.983, 12.568 8.578, 15.644 6.536 C 20.886 3.055, 21.650 2.844, 28.361 3.023 C 37.446 3.266, 38 3.207, 38 2 C 38 1.371, 31.493 1, 20.480 1 L 2.959 1 5.025 5.049 M 53.174 3.314 C 50.515 6.145, 50.403 8.463, 52.841 10.193 C 53.854 10.912, 55.195 12.466, 55.821 13.647 C 56.823 15.536, 56.538 16.115, 53.440 18.478 C 49.660 21.361, 45.108 23, 40.879 23 C 37.557 23, 35.674 25.224, 35.782 29.021 C 35.924 34.015, 36.964 34.344, 40.642 30.557 C 43.822 27.283, 44.560 27, 49.926 27 C 56.653 27, 58.317 25.706, 58.428 20.393 C 58.485 17.632, 58.973 16.800, 60.804 16.338 C 64.511 15.402, 63.359 11.583, 59.250 11.187 C 56.540 10.925, 56 10.461, 56 8.391 C 56 7.026, 57.105 4.805, 58.455 3.455 L 60.909 1 58.129 1 C 56.516 1, 54.436 1.972, 53.174 3.314 M 223.655 2.488 C 221.738 4.405, 220.770 10.674, 221.183 18.500 L 221.500 24.500 224.956 24.829 C 228.780 25.192, 231.114 23.152, 230.325 20.134 C 229.525 17.074, 232.323 15.883, 239.556 16.202 C 244.784 16.433, 246.482 16.892, 247.146 18.250 C 247.616 19.212, 248.383 20.788, 248.851 21.750 C 249.373 22.822, 251.087 23.619, 253.274 23.806 L 256.846 24.112 257.173 31.713 C 257.558 40.673, 256.728 42.283, 251.956 41.829 C 248.745 41.523, 248.464 41.216, 248 37.500 C 247.562 33.998, 247.148 33.460, 244.676 33.176 C 242.507 32.928, 241.725 33.334, 241.309 34.926 C 240.707 37.227, 238 37.796, 238 35.622 C 238 33.152, 235.366 31.734, 233.064 32.966 C 231.511 33.797, 231 35.053, 231 38.035 C 231 41.665, 230.768 42.010, 228.250 42.118 C 224.287 42.289, 222.546 41.943, 222.167 40.908 C 221.983 40.409, 221.423 40, 220.921 40 C 220.420 40, 220.065 42.406, 220.133 45.347 C 220.201 48.288, 219.623 52, 218.849 53.597 C 217.566 56.244, 216.993 56.497, 212.364 56.465 C 208.229 56.437, 207.526 56.668, 208.572 57.715 C 209.279 58.422, 210.902 59.020, 212.179 59.044 C 213.455 59.068, 216.188 59.690, 218.250 60.426 C 222.511 61.947, 222.248 62.540, 222.419 51 L 222.500 45.500 239 45 C 248.075 44.725, 256.113 44.105, 256.862 43.622 C 259.155 42.143, 260.050 45.072, 259.422 52 C 259.093 55.624, 259.284 59.606, 259.853 61 C 260.471 62.515, 260.898 62.864, 260.937 61.886 C 260.995 60.403, 268.486 56.690, 270.634 57.080 C 273.163 57.538, 274.792 56.752, 275.773 54.600 C 277.278 51.297, 276.106 50.552, 273.401 53.093 C 271.191 55.169, 271.103 55.174, 268.028 53.358 C 263.623 50.756, 261.845 46.633, 262.122 39.669 C 262.280 35.728, 261.930 33.575, 261.045 33.028 C 260.105 32.447, 259.562 27.891, 259.118 16.859 L 258.500 1.500 241.845 1.226 C 227.947 0.998, 224.936 1.207, 223.655 2.488 M 345.497 2.379 C 343.775 3.637, 343.725 4.139, 344.913 8.129 C 345.629 10.533, 346.824 13.625, 347.568 15 C 348.799 17.276, 348.924 16.760, 348.960 9.250 C 348.982 4.713, 348.636 1, 348.191 1 C 347.746 1, 346.534 1.620, 345.497 2.379 M 91.639 3.694 C 90.686 4.647, 90.867 7, 91.893 7 C 93.120 7, 94.105 4.183, 93.096 3.559 C 92.647 3.282, 91.991 3.342, 91.639 3.694 M 84.446 7.087 C 84.077 7.685, 84.275 8.675, 84.887 9.287 C 85.704 10.104, 86 9.815, 86 8.200 C 86 5.785, 85.481 5.413, 84.446 7.087 M 34.610 11.573 C 34.190 12.669, 34.511 13.048, 35.671 12.823 C 36.586 12.645, 37.522 11.938, 37.750 11.250 C 38.363 9.411, 35.320 9.724, 34.610 11.573 M 204 12 C 205.235 14.308, 208.529 14.653, 209.700 12.596 C 210.140 11.824, 211.625 10.985, 213 10.732 C 214.375 10.479, 212.672 10.211, 209.215 10.136 C 203.222 10.006, 202.979 10.093, 204 12 M 0.667 12.667 C -1.127 14.461, 0.250 17.586, 3.505 19.110 C 6.699 20.605, 7.055 20.597, 8.496 19.004 C 9.388 18.018, 9.767 16.558, 9.388 15.568 C 8.408 13.015, 2.338 10.996, 0.667 12.667 M 88.606 20.584 C 88.233 21.557, 88.456 22.015, 89.187 21.771 C 90.682 21.273, 91.505 19, 90.190 19 C 89.653 19, 88.941 19.713, 88.606 20.584 M 120 25.309 C 120 26.029, 120.643 27.491, 121.429 28.559 C 122.760 30.368, 122.903 30.381, 123.536 28.750 C 123.909 27.787, 123.955 26.325, 123.638 25.500 C 122.931 23.656, 120 23.502, 120 25.309 M 341.607 26.582 C 340.749 28.817, 340.817 29, 342.500 29 C 343.325 29, 344.900 29.900, 346 31 C 348.610 33.610, 349 33.527, 349 30.360 C 349 26.059, 342.987 22.986, 341.607 26.582 M 20.707 27.322 C 19.632 30.123, 22.175 31.968, 25.994 31.160 C 30.132 30.284, 31.568 27.008, 27.823 26.986 C 26.545 26.979, 24.550 26.718, 23.388 26.406 C 22.038 26.043, 21.070 26.374, 20.707 27.322 M 72.250 28.115 C 68.551 30.484, 68.254 31.858, 70.770 34.964 L 72.540 37.150 75.178 35.075 C 76.628 33.934, 78.671 33, 79.717 33 C 80.762 33, 82.435 32.402, 83.435 31.671 C 85.150 30.417, 85.097 30.222, 82.491 28.171 C 79.049 25.464, 76.412 25.449, 72.250 28.115 M 19.665 35.611 C 18.138 36.925, 16.239 38, 15.444 38 C 14.650 38, 14 38.464, 14 39.031 C 14 40.626, 17 41.400, 18.267 40.133 C 18.890 39.510, 20.660 39, 22.200 39 C 25.203 39, 25.728 37.540, 23.689 34.861 C 22.554 33.369, 22.194 33.436, 19.665 35.611 M 219.597 33.844 C 219.251 34.404, 219.455 35.163, 220.050 35.531 C 221.588 36.481, 222.580 35.180, 221.296 33.896 C 220.578 33.178, 220.019 33.161, 219.597 33.844 M 9.639 35.694 C 8.444 36.889, 8.994 39, 10.500 39 C 11.325 39, 12 38.352, 12 37.559 C 12 35.888, 10.573 34.761, 9.639 35.694 M 133.250 37.250 C 133.479 37.938, 134.267 38.500, 135 38.500 C 135.733 38.500, 136.521 37.938, 136.750 37.250 C 136.998 36.506, 136.289 36, 135 36 C 133.711 36, 133.002 36.506, 133.250 37.250 M 320 38 C 318.718 38.828, 318.754 38.972, 320.250 38.985 C 321.212 38.993, 322 38.550, 322 38 C 322 36.780, 321.887 36.780, 320 38 M 294.532 43.776 C 293.827 45.614, 295.728 49, 297.464 49 C 299.005 49, 302 46.351, 302 44.988 C 302 42.547, 295.414 41.478, 294.532 43.776 M 2.750 44.162 C 0.615 44.942, 0 45.814, 0 48.059 C 0 50.750, 0.178 50.883, 2.567 49.974 C 7.470 48.110, 9 46.919, 9 44.965 C 9 42.788, 7.159 42.552, 2.750 44.162 M 84.026 44.984 C 83.047 45.589, 83.236 46.056, 84.799 46.893 C 87.499 48.337, 90.270 48.311, 89.782 46.846 C 89.238 45.215, 85.570 44.029, 84.026 44.984 M 22.105 49.373 C 20.790 50.958, 21.646 54, 23.407 54 C 25.653 54, 26.973 51.818, 25.918 49.847 C 24.741 47.647, 23.650 47.512, 22.105 49.373 M 12.200 58.200 C 11.540 58.860, 11 59.954, 11 60.630 C 11 61.307, 10.017 62.005, 8.816 62.180 C 6.950 62.453, 6.575 63.263, 6.242 67.741 L 5.852 72.982 10.676 72.326 C 13.329 71.965, 16.005 70.986, 16.622 70.149 C 19.602 66.112, 22.250 60.093, 21.689 58.631 C 20.937 56.672, 14.042 56.358, 12.200 58.200 M 33.675 61.658 C 33.313 62.020, 33.511 62.910, 34.114 63.637 C 35.380 65.163, 39.474 63.577, 38.469 61.950 C 37.798 60.865, 34.660 60.674, 33.675 61.658 M 82.332 63.578 C 81.999 64.445, 82.446 65.875, 83.326 66.755 C 85.440 68.869, 90 67.001, 90 64.021 C 90 62.374, 89.346 62, 86.469 62 C 84.175 62, 82.725 62.553, 82.332 63.578 M 258.102 74 C 257.990 78.965, 257.296 82.846, 256.050 85.481 C 255.015 87.671, 254.451 89.921, 254.797 90.481 C 256.006 92.436, 254.867 97.514, 252.831 99.250 C 251.264 100.586, 248.972 100.999, 243.139 100.994 C 233.244 100.987, 228.429 99.617, 226.291 96.200 C 225.362 94.715, 223.837 92.738, 222.903 91.806 C 221.306 90.214, 221.172 90.233, 220.680 92.117 C 220.365 93.322, 220.723 94.340, 221.578 94.668 C 223.393 95.365, 223.389 97.468, 221.569 100.285 C 220.383 102.119, 220.329 103.818, 221.256 110.168 C 222.019 115.395, 222.061 119.214, 221.388 122.168 C 220.818 124.670, 220.748 128.160, 221.222 130.429 C 222.274 135.465, 221.231 136.412, 216.709 134.523 C 214.704 133.685, 211.362 133.002, 209.282 133.004 C 205.718 133.007, 199.312 135.975, 197.827 138.310 C 196.705 140.075, 201.666 141.883, 208.264 142.115 C 212.587 142.267, 214.865 142.820, 215.689 143.917 C 216.696 145.258, 217.205 145.300, 219.017 144.193 C 221.568 142.634, 223.707 143.928, 224.190 147.323 C 224.477 149.338, 225.058 149.500, 232 149.500 C 237.387 149.500, 239.472 149.852, 239.400 150.750 C 239.345 151.438, 239.233 153.294, 239.150 154.875 C 239.026 157.250, 238.435 157.880, 235.750 158.499 L 232.500 159.248 236.995 160.114 C 243.786 161.422, 244.592 160.849, 244.543 154.748 L 244.500 149.500 251.500 149 L 258.500 148.500 259.232 144 C 259.634 141.525, 259.892 129.150, 259.803 116.500 C 259.715 103.850, 260.023 92.643, 260.488 91.596 C 260.985 90.475, 260.857 87.913, 260.177 85.370 C 259.303 82.104, 259.302 80.430, 260.175 78.516 C 261.033 76.633, 261.041 75.408, 260.206 73.741 C 259.588 72.509, 258.901 70.375, 258.678 69 C 258.455 67.625, 258.196 69.875, 258.102 74 M 133.636 74.250 C 133.933 77.138, 135.262 83.954, 136.588 89.398 C 138.468 97.113, 139.008 102.076, 139.037 111.898 C 139.057 118.829, 139.664 127.553, 140.386 131.284 C 141.108 135.015, 141.317 138.304, 140.850 138.593 C 139.657 139.330, 139.789 146.737, 141.035 149.066 C 142.694 152.165, 144 151.310, 144 147.126 L 144 143.252 155.515 142.811 C 161.848 142.568, 167.449 141.949, 167.962 141.435 C 168.474 140.921, 169.063 130.967, 169.270 119.316 C 169.519 105.276, 170.036 97.662, 170.802 96.738 C 172.490 94.705, 172.143 77.108, 170.359 74.250 C 169.110 72.250, 168.151 72.002, 161.727 72.021 C 155.325 72.039, 146.844 73.418, 140.306 75.504 C 138.459 76.093, 137.874 75.635, 136.607 72.602 C 134.395 67.308, 133 68.082, 133.636 74.250 M 23.513 70.979 C 23.180 71.518, 23.378 72.838, 23.954 73.914 C 24.529 74.989, 25 77.023, 25 78.434 C 25 80.618, 25.446 81, 28 81 C 31.203 81, 35 78.003, 35 75.475 C 35 74.637, 33.763 73.511, 32.250 72.975 C 30.738 72.438, 28.719 71.549, 27.764 71 C 25.572 69.738, 24.284 69.732, 23.513 70.979 M 76.667 76.667 C 76.300 77.033, 76 78.553, 76 80.045 C 76 81.725, 75.144 83.353, 73.750 84.326 C 71.501 85.895, 71.501 85.895, 74.703 85.948 C 77.402 85.992, 78.167 85.450, 79.563 82.508 C 80.475 80.588, 80.960 78.338, 80.641 77.508 C 80.045 75.954, 77.845 75.489, 76.667 76.667 M 5.242 79.984 C 2.536 84.317, 5.314 87.521, 8.614 83.874 C 9.958 82.388, 10.155 81.469, 9.387 80.251 C 7.863 77.835, 6.634 77.756, 5.242 79.984 M 61 79.500 C 61 80.325, 61.675 81, 62.500 81 C 63.325 81, 64 80.325, 64 79.500 C 64 78.675, 63.325 78, 62.500 78 C 61.675 78, 61 78.675, 61 79.500 M 35.270 82.564 C 31.626 84.172, 30.227 87.688, 31.950 90.907 C 33.520 93.840, 34.702 93.545, 38.598 89.250 C 44.062 83.227, 42.208 79.504, 35.270 82.564 M 188.079 83.583 C 188.127 84.748, 188.364 84.985, 188.683 84.188 C 188.972 83.466, 188.936 82.603, 188.604 82.271 C 188.272 81.939, 188.036 82.529, 188.079 83.583 M 69 87.059 C 69 87.641, 69.450 87.840, 70 87.500 C 70.550 87.160, 71 86.684, 71 86.441 C 71 86.198, 70.550 86, 70 86 C 69.450 86, 69 86.477, 69 87.059 M 61.332 91.578 C 60.548 93.620, 63.380 96.452, 65.422 95.668 C 66.290 95.335, 67 93.924, 67 92.531 C 67 90.490, 66.510 90, 64.469 90 C 63.076 90, 61.665 90.710, 61.332 91.578 M 0.052 97.917 C 0.002 105.112, 0.572 106.920, 1.322 101.939 C 1.579 100.236, 2.415 99.416, 4.095 99.220 C 10.088 98.523, 11.232 97.984, 9.966 96.459 C 9.300 95.656, 7.515 95, 6 95 C 4.274 95, 2.657 94.159, 1.674 92.750 C 0.186 90.616, 0.102 90.882, 0.052 97.917 M 13.675 96.704 C 11.941 97.152, 11.936 97.272, 13.580 99.088 C 14.531 100.140, 15.885 101, 16.587 101 C 18.282 101, 22.297 106.710, 21.504 107.993 C 21.162 108.547, 19.851 109, 18.590 109 C 17.330 109, 14.994 109.413, 13.399 109.917 C 11.805 110.422, 9.262 111.105, 7.750 111.436 C 4.673 112.110, 4.211 114.068, 6.572 116.429 C 8.538 118.395, 18.204 117.938, 18.854 115.849 C 19.556 113.592, 24.396 109.057, 26.133 109.028 C 28.145 108.994, 29.309 105.078, 27.836 103.302 C 27.241 102.586, 25.701 102, 24.412 102 C 23.123 102, 20.688 100.650, 19 99 C 17.312 97.350, 15.834 96.052, 15.716 96.116 C 15.597 96.180, 14.679 96.444, 13.675 96.704 M 34.380 98.452 C 33.517 100.702, 34.841 102, 38 102 C 41.876 102, 42.519 100.570, 39.527 98.609 C 36.486 96.617, 35.100 96.575, 34.380 98.452 M 63.697 107.347 C 63.413 108.087, 64.235 110, 65.523 111.597 C 67.464 114.003, 68.177 114.310, 69.683 113.393 C 72.882 111.443, 72.455 109.088, 68.609 107.481 C 64.295 105.678, 64.337 105.680, 63.697 107.347 M 185.008 108.974 C 183.849 109.707, 183.784 110.184, 184.716 111.116 C 185.648 112.048, 186.259 112.030, 187.458 111.035 C 190.445 108.555, 188.397 106.831, 185.008 108.974 M 53 110.500 C 53 111.664, 53.727 112.042, 55.531 111.816 C 58.807 111.407, 58.807 109.593, 55.531 109.184 C 53.727 108.958, 53 109.336, 53 110.500 M 28 114 C 28 115.100, 28.408 116, 28.906 116 C 29.405 116, 29.577 115.100, 29.290 114 C 29.002 112.900, 28.594 112, 28.383 112 C 28.173 112, 28 112.900, 28 114 M 81.410 118.170 C 79.260 119.319, 76.228 121.326, 74.673 122.630 C 72.033 124.844, 70.553 125.427, 65.500 126.246 C 63.676 126.542, 63.779 126.853, 66.673 129.785 C 70.673 133.838, 73.747 134.020, 74.541 130.250 C 75.518 125.604, 76.512 124.567, 81.849 122.625 C 85.471 121.306, 87 120.210, 87 118.934 C 87 116.097, 85.638 115.911, 81.410 118.170 M 183 119.500 C 183 120.417, 183.484 121.005, 184.075 120.808 C 184.666 120.611, 185.150 120.023, 185.150 119.500 C 185.150 118.977, 184.666 118.389, 184.075 118.192 C 183.484 117.995, 183 118.583, 183 119.500 M 278 120.559 C 278 121.416, 278.408 121.866, 278.907 121.558 C 279.405 121.249, 279.599 121.817, 279.337 122.818 C 279.075 123.820, 279.537 125.201, 280.364 125.887 C 281.573 126.891, 282.416 126.840, 284.683 125.628 L 287.500 124.123 284.330 122.991 C 282.587 122.369, 280.913 121.217, 280.612 120.430 C 279.875 118.512, 278 118.605, 278 120.559 M 303 122 C 303 122.550, 303.648 123, 304.441 123 C 305.234 123, 306.160 122.550, 306.500 122 C 306.840 121.450, 306.191 121, 305.059 121 C 303.927 121, 303 121.450, 303 122 M 17.546 124.925 C 16.890 125.987, 18.958 131.139, 20.480 132.235 C 24.511 135.137, 26.125 130.784, 22.443 126.940 C 19.463 123.830, 18.474 123.423, 17.546 124.925 M 188.245 127.250 C 188.861 129.120, 192.654 129.345, 193.341 127.553 C 193.800 126.358, 193.233 126, 190.885 126 C 188.891 126, 187.976 126.433, 188.245 127.250 M 5.251 129.672 C 1.842 133.001, 1.715 136, 4.985 136 C 7.643 136, 9.175 133.529, 8.818 129.815 L 8.500 126.500 5.251 129.672 M 50.750 128.080 C 48.266 129.527, 48.583 131, 51.378 131 C 53.860 131, 56.463 128.796, 55.325 127.658 C 54.405 126.738, 52.800 126.886, 50.750 128.080 M 43.250 133.662 C 41.509 134.365, 41.684 136, 43.500 136 C 44.325 136, 45 135.325, 45 134.500 C 45 133.675, 44.888 133.036, 44.750 133.079 C 44.612 133.122, 43.938 133.385, 43.250 133.662 M 104 137 C 102.831 137.755, 103.107 137.973, 105.250 137.985 C 106.763 137.993, 108 137.550, 108 137 C 108 135.736, 105.957 135.736, 104 137 M 88.676 138.402 C 88.380 139.173, 88.376 140.042, 88.667 140.333 C 89.585 141.252, 92 139.846, 92 138.393 C 92 136.578, 89.373 136.585, 88.676 138.402 M 2.250 141.270 C 0.486 142.082, 0 143.137, 0 146.153 C 0 149.575, 0.272 150, 2.465 150 C 5.909 150, 7.399 146.909, 5.767 143.151 C 4.657 140.594, 4.222 140.362, 2.250 141.270 M 167.847 143.936 C 167.656 144.496, 163.505 145.261, 158.623 145.635 C 151.424 146.186, 149.250 146.746, 147.123 148.594 C 144.878 150.545, 144.674 151.158, 145.703 152.848 C 146.684 154.458, 146.626 154.930, 145.390 155.404 C 142.024 156.696, 145.402 158.214, 150.670 157.777 C 154.765 157.438, 156.450 156.802, 157.597 155.164 C 159.374 152.628, 161 152.342, 161 154.566 C 161 155.838, 161.894 156.039, 165.750 155.637 C 168.363 155.364, 170.613 155.109, 170.750 155.070 C 171.764 154.785, 170.741 145.030, 169.597 144.081 C 168.693 143.331, 168.071 143.279, 167.847 143.936 M 109.323 157.601 C 108.507 159.727, 110.666 160.966, 115.219 160.985 C 119.884 161.004, 119.471 162.304, 113.308 167 C 103.227 174.681, 103.020 176, 111.892 176 C 115.068 176, 117.954 176.287, 118.305 176.639 C 118.657 176.990, 117.797 178.640, 116.396 180.306 C 114.444 182.626, 114.158 183.501, 115.174 184.046 C 117.606 185.350, 129.670 187.016, 132.605 186.453 C 134.197 186.148, 137.975 186.273, 141 186.731 L 146.500 187.565 143.500 190.386 C 140.693 193.026, 140.145 193.161, 135 192.470 C 131.975 192.063, 125.079 191.608, 119.675 191.457 C 114.272 191.307, 109.587 190.920, 109.265 190.598 C 108.943 190.276, 109.651 189.170, 110.840 188.139 C 112.028 187.109, 113 185.808, 113 185.249 C 113 184.040, 109.663 183.039, 105.500 182.998 C 103.850 182.982, 101.825 182.539, 101 182.013 C 99.727 181.201, 99.840 180.817, 101.750 179.471 C 102.987 178.600, 104 177.313, 104 176.612 C 104 174.880, 99.834 172.773, 96.896 173.020 C 91.775 173.450, 91.452 173.011, 94.750 170.102 C 96.537 168.526, 98.003 166.846, 98.006 166.368 C 98.010 165.891, 99.360 164.733, 101.006 163.797 C 102.801 162.775, 104 161.273, 104 160.047 C 104 158.347, 103.363 158.001, 100.250 158.005 C 97.124 158.009, 95.173 159.089, 88.522 164.506 C 79.882 171.541, 77.654 174.835, 80.952 175.698 C 82.791 176.179, 82.812 176.357, 81.306 178.656 C 79.189 181.886, 80.330 182.818, 86.855 183.193 L 92.211 183.500 89.150 186.694 C 85.991 189.991, 84.761 190.151, 76.123 188.384 L 73.747 187.898 75.866 185.642 C 77.508 183.895, 77.717 183.117, 76.793 182.193 C 74.694 180.094, 70.631 180.886, 67.250 184.055 C 63.724 187.360, 63.144 189, 65.500 189 C 66.491 189, 67 189.991, 67 191.918 C 67 197.246, 67.785 198, 73.328 198 C 79.070 198, 89 195.955, 89 194.773 C 89 194.348, 91.500 194, 94.556 194 C 99.429 194, 100.444 194.362, 102.806 196.942 C 105.243 199.603, 106.262 199.936, 113.500 200.431 C 117.900 200.733, 124.228 201.388, 127.561 201.887 C 134.900 202.986, 138.781 202.398, 141.699 199.746 C 143.819 197.819, 146.111 197.731, 150.110 199.425 C 152.348 200.373, 158 195.453, 158 192.557 C 158 191.311, 156.875 189.078, 155.500 187.595 C 154.125 186.111, 153 184.020, 153 182.948 C 153 181.388, 153.698 181, 156.500 181 C 158.425 181, 160.113 181.106, 160.250 181.236 C 160.387 181.366, 162.169 180.440, 164.210 179.179 C 167.126 177.377, 168.341 177.112, 169.889 177.941 C 172.090 179.118, 180.961 177.231, 188.583 173.964 C 191.283 172.807, 194.145 172.310, 196.204 172.642 C 198.869 173.072, 199.972 172.670, 201.967 170.542 C 204.815 167.503, 204.134 165.392, 199.585 163.161 C 198.083 162.424, 197.075 161.248, 197.343 160.547 C 197.696 159.630, 196 159.102, 191.280 158.662 C 187.677 158.325, 184.339 158.290, 183.864 158.584 C 182 159.736, 183.172 160.938, 186.750 161.542 C 194.725 162.887, 194.801 162.968, 191.047 166.102 C 188.001 168.645, 187.095 168.883, 182.091 168.457 C 172.243 167.619, 171.025 166.632, 176.206 163.682 C 178.749 162.234, 179.104 161.678, 177.949 160.947 C 175.818 159.599, 172.727 159.803, 170.381 161.445 C 169.247 162.240, 165.766 163.028, 162.647 163.195 C 159.529 163.363, 156.960 163.950, 156.940 164.500 C 156.919 165.050, 159.512 165.910, 162.701 166.410 C 165.890 166.911, 168.689 167.475, 168.921 167.664 C 169.152 167.853, 168.286 169.131, 166.996 170.504 C 164.583 173.073, 161.589 173.763, 160.500 172 C 160.160 171.450, 157.659 171, 154.941 171 C 149.484 171, 148.698 170.035, 152.500 168 C 153.875 167.264, 155 166.339, 155 165.945 C 155 164.509, 148.423 164.249, 145.500 165.569 C 143.850 166.314, 140.254 167.054, 137.509 167.212 C 133.690 167.432, 132.440 167.911, 132.186 169.250 C 131.900 170.757, 132.675 171, 137.760 171 C 141.009 171, 143.934 171.267, 144.261 171.594 C 145.310 172.643, 138.320 178, 135.901 178 C 134.617 178, 131.631 177.261, 129.265 176.357 C 125.271 174.832, 125.099 174.619, 126.864 173.383 C 127.999 172.588, 129.033 170.265, 129.430 167.618 C 130.023 163.664, 129.799 162.890, 127.353 160.444 C 123.080 156.171, 110.625 154.207, 109.323 157.601 M 225.500 159 C 225.840 159.550, 227.468 160, 229.118 160 C 230.863 160, 231.860 159.582, 231.500 159 C 231.160 158.450, 229.532 158, 227.882 158 C 226.137 158, 225.140 158.418, 225.500 159 M 252 159 C 250.831 159.755, 251.107 159.973, 253.250 159.985 C 254.762 159.993, 256 159.550, 256 159 C 256 157.736, 253.957 157.736, 252 159 M 27.693 161.787 C 26.733 162.848, 26.306 164.452, 26.641 165.737 C 27 167.109, 26.360 169.108, 24.890 171.200 C 20.906 176.876, 17.459 178.624, 16.819 175.296 C 16.590 174.111, 15.357 173.520, 12.768 173.355 C 8.483 173.080, 7.161 174.388, 9.274 176.813 C 10.082 177.741, 11.283 179.544, 11.944 180.820 C 13.764 184.334, 9.990 187.280, 4.253 186.824 C 0.549 186.529, -0 186.745, -0 188.493 C -0 190.228, 0.643 190.493, 4.750 190.447 C 9.860 190.390, 10.961 191.171, 10.985 194.872 C 10.997 196.801, 11.264 197.026, 12.411 196.074 C 13.422 195.235, 14.014 195.213, 14.499 195.998 C 14.961 196.745, 16.205 196.486, 18.412 195.184 C 20.192 194.134, 24.090 192.700, 27.074 191.996 C 41.506 188.595, 40 189.535, 40 183.930 C 40 177.918, 39.054 177.347, 31.762 178.955 C 22.305 181.039, 22 181.068, 22 179.866 C 22 179.221, 24.262 176.301, 27.027 173.378 C 31.174 168.993, 31.943 167.622, 31.421 165.541 C 30.968 163.737, 31.244 162.844, 32.388 162.405 C 33.268 162.067, 33.740 161.388, 33.435 160.895 C 32.515 159.406, 29.411 159.888, 27.693 161.787 M 6 166.604 C 6 168.365, 6.696 169.113, 8.750 169.559 C 10.262 169.887, 12.482 170.630, 13.683 171.211 C 16.237 172.446, 19 171.654, 19 169.686 C 19 167.276, 15.647 165.270, 10.750 164.750 C 6.284 164.276, 6 164.386, 6 166.604 M 312.100 168.705 C 312.829 169.917, 313.640 170.694, 313.903 170.431 C 314.166 170.168, 313.570 169.176, 312.579 168.226 C 310.857 166.577, 310.835 166.598, 312.100 168.705 M 312.633 192.432 C 310.896 198.496, 310.883 199.316, 312.396 206.781 C 313.278 211.136, 314 215.597, 314 216.695 C 314 218.726, 316.861 222, 318.636 222 C 319.175 222, 320.489 220.088, 321.558 217.750 C 324.831 210.588, 323.436 192.438, 319.252 187.750 C 316.276 184.416, 314.586 185.611, 312.633 192.432 M 23.136 218.336 C 21.447 220.372, 19 227.903, 19 231.067 C 19 234.238, 17.509 235.769, 16.636 233.494 C 16.295 232.605, 14.784 232, 12.906 232 C 9.933 232, 9.785 231.826, 10.350 229 C 10.845 226.523, 10.624 226, 9.082 226 C 6.814 226, 6 227.888, 6 233.148 C 6 235.339, 5.534 238.002, 4.965 239.066 C 3.961 240.941, 4.421 241, 19.965 241 L 36 241 36 235.950 C 36 233.173, 36.642 229.659, 37.427 228.141 C 39.281 224.556, 38.472 223.433, 31.498 219.915 C 24.880 216.577, 24.634 216.531, 23.136 218.336 M 324.667 217.667 C 324.300 218.033, 324 220.309, 324 222.724 C 324 225.139, 323.477 229.193, 322.837 231.733 C 321.859 235.618, 321.551 236.018, 320.896 234.248 C 320.468 233.092, 319.829 230.200, 319.474 227.823 C 318.726 222.796, 318.577 222.564, 316.601 223.323 C 313.915 224.354, 312.046 228.497, 311.427 234.796 L 310.817 241 329.908 241 C 351.014 241, 351.848 240.703, 345.814 235.335 C 344.062 233.776, 341.224 231.044, 339.507 229.265 C 337.790 227.486, 335.024 225.556, 333.359 224.975 C 331.448 224.309, 329.724 222.645, 328.682 220.460 C 327.066 217.071, 326.002 216.331, 324.667 217.667 M 284 222.579 C 282.075 223.903, 279.698 225.958, 278.718 227.144 C 277.470 228.655, 275.440 229.443, 271.934 229.780 C 268.873 230.074, 266.459 230.906, 265.715 231.921 C 265.047 232.835, 262.925 234.667, 261 235.993 C 259.075 237.319, 257.275 238.711, 257 239.086 C 256.725 239.462, 255.600 239.993, 254.500 240.268 C 253.400 240.543, 261.387 240.820, 272.250 240.884 L 292 241 292 235.149 C 292 229.138, 290.594 223.392, 288.619 221.335 C 287.773 220.454, 286.647 220.757, 284 222.579 M 135.844 228.156 C 133.727 230.273, 131 236.447, 131 239.122 C 131 240.878, 132 241, 146.362 241 L 161.724 241 162.870 235.294 C 163.771 230.806, 163.747 229.333, 162.758 228.396 C 161.988 227.667, 156.872 227.040, 149.571 226.781 C 139.073 226.408, 137.427 226.573, 135.844 228.156" stroke="none" fill="black" fill-rule="evenodd"/>
</svg>